PathFileType	4	(X/Y/Z)	s03c0302.trc
DataRate	CameraRate	NumFrames	NumMarkers	Units	OrigDataRate	OrigDataStartFrame	OrigNumFrames
200	200	4	52	mm	200	1750	2000
Frame#	Time	racr			lacr			c7			jug			rlel			rdr			llel			ldr			s2			lic			ric			lasi			rasi			rpsi			lpsi			rgt			lgt			rth1			rth2			rth3			rth4			rlfc			rmfc			rsh1			rsh2			rsh3			rsh4			rlmal			rmmal			rcal			rtoe			rmt5			rmt1			lth1			lth2			lth4			lth3			llfc			lmfc			lsh1			lsh2			lsh3			lsh4			llmal			lmmal			lcal			ltoe			lmt1			lmt5			SBIKE			LBIKE			RBIKE			
		X1	Y1	Z1	X2	Y2	Z2	X3	Y3	Z3	X4	Y4	Z4	X5	Y5	Z5	X6	Y6	Z6	X7	Y7	Z7	X8	Y8	Z8	X9	Y9	Z9	X10	Y10	Z10	X11	Y11	Z11	X12	Y12	Z12	X13	Y13	Z13	X14	Y14	Z14	X15	Y15	Z15	X16	Y16	Z16	X17	Y17	Z17	X18	Y18	Z18	X19	Y19	Z19	X20	Y20	Z20	X21	Y21	Z21	X22	Y22	Z22	X23	Y23	Z23	X24	Y24	Z24	X25	Y25	Z25	X26	Y26	Z26	X27	Y27	Z27	X28	Y28	Z28	X29	Y29	Z29	X30	Y30	Z30	X31	Y31	Z31	X32	Y32	Z32	X33	Y33	Z33	X34	Y34	Z34	X35	Y35	Z35	X36	Y36	Z36	X37	Y37	Z37	X38	Y38	Z38	X39	Y39	Z39	X40	Y40	Z40	X41	Y41	Z41	X42	Y42	Z42	X43	Y43	Z43	X44	Y44	Z44	X45	Y45	Z45	X46	Y46	Z46	X47	Y47	Z47	X48	Y48	Z48	X49	Y49	Z49	X50	Y50	Z50	X51	Y51	Z51	X52	Y52	Z52	
1750	8.7500	671.063233	1422.036343	-80.931200	630.976599	1457.255161	-405.774958	600.305301	1528.273595	-237.848477	614.440446	1353.558501	-248.089550	589.186518	1166.886611	46.344451	740.214372	945.870324	-48.481796	624.149655	1186.545729	-479.762135	754.570234	917.928604	-418.970103	68.730824	1266.981553	-207.826347	234.493343	1287.270345	-395.359505	255.123132	1263.028935	-34.009849	252.664354	1211.805940	-359.635108	268.302845	1183.885628	-84.097004	105.451563	1309.310842	-158.826231	98.020221	1318.646868	-231.963244	171.469576	1153.296779	-28.490148	172.648365	1215.227445	-417.753606	200.462350	999.668767	-10.897549	244.102122	922.272969	-13.619965	246.993073	837.219289	-26.816701	278.952726	932.961890	-21.040569	265.474032	715.040908	-61.979239	281.813403	699.249589	-173.718896	214.522090	553.818957	-34.720689	218.259555	464.871903	-45.636018	176.220161	387.258839	-49.553618	249.151784	460.306035	-68.948031	137.366303	260.040570	-72.991565	166.030283	270.853124	-152.468208	71.341599	232.824517	-106.958235	370.450315	146.884028	-117.622076	252.770873	161.121211	-43.445763	279.884050	174.487443	-157.179819	256.363749	1131.969433	-485.835760	331.894148	1102.751240	-517.626605	357.188423	1126.547930	-504.392244	381.437737	1033.857789	-547.135140	488.822712	946.338693	-572.026034	527.801910	925.888644	-446.735965	367.489249	822.064970	-550.024671	330.975574	754.223024	-511.555788	256.485551	712.710399	-481.592907	359.143996	736.430659	-491.363036	173.541353	629.966292	-431.551162	0.000000	0.000000	-0.000000	101.073697	625.801591	-375.301395	369.001104	477.317037	-359.721132	283.489350	518.134298	-320.767719	254.238394	503.988177	-437.041971	-217.282455	944.471257	-234.191879	-11.703042	81.067116	-435.599912	-11.887583	81.051302	-35.127771	
1751	8.7550	670.658329	1421.966818	-80.586217	630.312366	1457.192200	-405.450610	599.800075	1528.238507	-237.366724	613.946908	1353.555432	-247.754505	589.232576	1166.639565	46.465925	740.235445	945.720653	-48.407584	623.591562	1186.490089	-479.303277	754.555650	917.979243	-418.947625	67.932162	1267.328969	-206.864231	233.469630	1287.758559	-394.727749	254.814868	1262.765507	-33.503663	251.597284	1212.129755	-359.235458	267.880364	1183.864374	-83.963956	104.954775	1309.534198	-157.902852	97.266898	1318.961643	-230.822272	171.067537	1153.266281	-27.998275	171.509162	1215.748452	-417.127968	199.933062	999.728059	-10.514218	243.563497	922.328575	-13.341243	246.465454	837.288332	-26.536672	278.502210	932.930543	-20.969549	264.577928	715.097529	-61.728909	280.772069	699.350794	-173.650268	213.501206	553.887902	-34.563857	217.246642	464.965501	-45.526315	175.225602	387.316964	-49.470842	248.159407	460.392209	-68.852047	136.298555	259.947438	-73.062250	165.004914	270.995916	-152.417633	70.320174	232.911323	-106.931007	369.315049	146.843816	-117.572128	251.676933	161.098451	-43.421673	278.856430	174.521401	-157.132469	255.205790	1132.565628	-485.480921	330.698209	1103.474154	-517.422333	355.987331	1127.327898	-504.248839	380.330401	1034.700954	-547.030515	487.865070	947.465535	-572.151166	527.026803	926.981676	-446.953363	367.019941	822.607298	-550.155305	330.826743	754.634060	-511.636619	256.535724	712.800368	-481.643194	359.095619	736.906767	-491.535553	173.937003	629.699299	-431.529413	0.000000	0.000000	-0.000000	101.536940	625.266109	-375.295712	369.987603	477.850767	-359.694692	284.349342	518.282982	-320.725179	255.129654	504.037942	-437.051575	-217.291341	944.474851	-234.184444	-11.712808	81.063615	-435.595482	-11.894689	81.047076	-35.111861	
1752	8.7600	670.290859	1421.908108	-80.231140	629.579099	1457.157225	-405.121898	599.293934	1528.207870	-236.893979	613.401309	1353.559333	-247.401042	589.278645	1166.390881	46.597147	740.268021	945.595520	-48.358548	623.144655	1186.415295	-478.859828	754.560345	918.044801	-418.921427	67.208305	1267.676723	-205.922880	232.472043	1288.224900	-393.964001	254.510899	1262.511052	-32.989104	250.551315	1212.529460	-358.841038	267.497658	1183.873436	-83.943054	104.445745	1309.731561	-156.944661	102.524562	1316.416970	-240.977369	170.672820	1153.209350	-27.515458	170.377368	1216.264157	-416.560231	199.376213	999.787631	-10.134466	243.030632	922.371982	-13.120389	245.923105	837.362662	-26.285057	277.982720	933.011545	-20.858727	263.726495	715.181235	-61.497411	279.792515	699.410022	-173.528915	212.540953	553.970528	-34.422632	216.284897	465.009632	-45.420518	174.187223	387.367858	-49.387664	247.106077	460.493845	-68.673197	135.326581	260.022277	-73.031355	163.918981	271.127935	-152.400662	69.263517	233.006339	-106.954240	368.241322	146.763239	-117.586335	250.572776	161.125099	-43.401919	277.783916	174.510139	-157.174755	253.958204	1133.109649	-485.217427	329.443850	1104.164489	-517.283569	354.954262	1128.285391	-504.623644	379.195171	1035.422088	-546.886600	486.931804	948.444604	-572.327688	526.150919	928.082050	-447.193438	366.494416	823.204857	-550.261588	330.647237	754.936442	-511.651604	256.538711	712.870894	-481.664255	359.015659	737.354777	-491.694102	174.321779	629.370240	-431.489824	0.000000	0.000000	-0.000000	101.965747	624.762156	-375.285365	370.934858	478.393948	-359.661195	285.229316	518.451916	-320.701492	256.038426	504.095509	-437.045968	-217.281101	944.481467	-234.164181	-11.711980	81.049254	-435.569568	-11.903583	81.049363	-35.109949	
1753	8.7650	669.863094	1421.804436	-79.915313	628.911275	1457.121173	-404.824006	598.765279	1528.150449	-236.343792	612.903830	1353.569998	-247.023635	589.683749	1166.217765	47.016221	740.277003	945.440577	-48.329745	622.588875	1186.355990	-478.333889	754.558797	918.091039	-418.882887	66.511729	1268.056427	-204.952188	231.480294	1288.703258	-393.311090	254.237099	1262.273270	-32.498365	249.446261	1212.899029	-358.629917	267.113692	1183.769928	-83.807110	102.612991	1310.720452	-154.802133	100.972257	1317.430743	-234.603428	170.271743	1153.159175	-26.993016	169.206126	1216.762356	-416.049913	198.809560	999.875383	-9.748650	242.478836	922.417061	-12.904712	245.328024	837.450434	-26.073724	277.386043	933.153606	-20.685578	262.830147	715.227616	-61.287414	278.839531	699.455137	-173.257594	211.488909	554.055609	-34.330066	215.238855	465.040528	-45.292290	173.198327	387.419769	-49.315957	246.144916	460.448867	-68.541721	134.212965	260.143406	-73.005362	162.885039	271.141280	-152.382652	68.281130	233.039415	-106.929655	367.205348	146.763246	-117.585384	249.519377	161.144057	-43.400900	276.709908	174.501537	-157.140447	252.710111	1133.538261	-484.859910	328.195964	1104.736302	-517.109882	353.652961	1128.937478	-504.473529	378.039362	1036.144780	-546.729842	485.978972	949.486083	-572.525151	525.253315	929.116358	-447.378199	365.989805	823.675579	-550.301066	330.384490	755.313365	-511.740135	256.520182	712.924795	-481.671658	358.873758	737.859230	-491.829450	174.651735	629.080949	-431.462354	0.000000	0.000000	-0.000000	102.370578	624.160029	-375.236776	371.994557	478.922514	-359.698919	285.946017	518.715887	-320.930062	256.919481	504.152919	-437.074504	-217.270350	944.479499	-234.157873	-11.715798	81.045215	-435.555112	-11.901127	81.052958	-35.108742	
